<svg class="animated" id="freepik_stories-order-ahead" xmlns="http://www.w3.org/2000/svg" viewBox="0 0 500 500" version="1.1" xmlns:xlink="http://www.w3.org/1999/xlink" xmlns:svgjs="http://svgjs.com/svgjs"><style>svg#freepik_stories-order-ahead:not(.animated) .animable {opacity: 0;}svg#freepik_stories-order-ahead.animated #freepik--background-complete--inject-72 {animation: 1.5s Infinite  linear floating;animation-delay: 0s;}            @keyframes floating {                0% {                    opacity: 1;                    transform: translateY(0px);                }                50% {                    transform: translateY(-10px);                }                100% {                    opacity: 1;                    transform: translateY(0px);                }            }        </style><g id="freepik--background-complete--inject-72" class="animable" style="transform-origin: 250px 228.23px;"><rect y="382.4" width="500" height="0.25" style="fill: rgb(235, 235, 235); transform-origin: 250px 382.525px;" id="elka173kyx5cb" class="animable"></rect><rect x="416.78" y="398.49" width="33.12" height="0.25" style="fill: rgb(235, 235, 235); transform-origin: 433.34px 398.615px;" id="elq1qtx071z7i" class="animable"></rect><rect x="322.53" y="401.21" width="8.69" height="0.25" style="fill: rgb(235, 235, 235); transform-origin: 326.875px 401.335px;" id="elf8bn5jlucge" class="animable"></rect><rect x="396.59" y="389.21" width="19.19" height="0.25" style="fill: rgb(235, 235, 235); transform-origin: 406.185px 389.335px;" id="eleb1cs73majq" class="animable"></rect><rect x="52.46" y="390.89" width="43.19" height="0.25" style="fill: rgb(235, 235, 235); transform-origin: 74.055px 391.015px;" id="elb7tjj436cl" class="animable"></rect><rect x="104.56" y="390.89" width="6.33" height="0.25" style="fill: rgb(235, 235, 235); transform-origin: 107.725px 391.015px;" id="elc0us0l6tgcv" class="animable"></rect><rect x="131.47" y="395.11" width="93.68" height="0.25" style="fill: rgb(235, 235, 235); transform-origin: 178.31px 395.235px;" id="elz17fx3gjmc" class="animable"></rect><path d="M237,337.8H43.91a5.71,5.71,0,0,1-5.7-5.71V60.66A5.71,5.71,0,0,1,43.91,55H237a5.71,5.71,0,0,1,5.71,5.71V332.09A5.71,5.71,0,0,1,237,337.8ZM43.91,55.2a5.46,5.46,0,0,0-5.45,5.46V332.09a5.46,5.46,0,0,0,5.45,5.46H237a5.47,5.47,0,0,0,5.46-5.46V60.66A5.47,5.47,0,0,0,237,55.2Z" style="fill: rgb(235, 235, 235); transform-origin: 140.46px 196.4px;" id="elk8586eypcb" class="animable"></path><path d="M453.31,337.8H260.21a5.72,5.72,0,0,1-5.71-5.71V60.66A5.72,5.72,0,0,1,260.21,55h193.1A5.71,5.71,0,0,1,459,60.66V332.09A5.71,5.71,0,0,1,453.31,337.8ZM260.21,55.2a5.47,5.47,0,0,0-5.46,5.46V332.09a5.47,5.47,0,0,0,5.46,5.46h193.1a5.47,5.47,0,0,0,5.46-5.46V60.66a5.47,5.47,0,0,0-5.46-5.46Z" style="fill: rgb(235, 235, 235); transform-origin: 356.75px 196.4px;" id="eljo66jvyom8l" class="animable"></path><rect x="98.6" y="307" width="104.42" height="64.39" style="fill: rgb(230, 230, 230); transform-origin: 150.81px 339.195px;" id="elem9zr3o2pp" class="animable"></rect><rect x="106.89" y="310.01" width="43.12" height="33.07" style="fill: rgb(240, 240, 240); transform-origin: 128.45px 326.545px;" id="elo028h998cgd" class="animable"></rect><rect x="151.62" y="310.01" width="43.12" height="33.07" style="fill: rgb(240, 240, 240); transform-origin: 173.18px 326.545px;" id="eloh9tnqaplkr" class="animable"></rect><path d="M98.6,313.15h0a4.36,4.36,0,0,1-4.35-4.36v-4.36H103v4.36A4.36,4.36,0,0,1,98.6,313.15Z" style="fill: rgb(224, 224, 224); transform-origin: 98.625px 308.79px;" id="elp44846t827" class="animable"></path><path d="M102.94,304.43h8.71a0,0,0,0,1,0,0v4.36a4.36,4.36,0,0,1-4.36,4.36h0a4.36,4.36,0,0,1-4.36-4.36v-4.36A0,0,0,0,1,102.94,304.43Z" style="fill: rgb(250, 250, 250); transform-origin: 107.29px 308.79px;" id="elqj3stvs0jxo" class="animable"></path><path d="M116,313.15h0a4.36,4.36,0,0,1-4.36-4.36v-4.36h8.71v4.36A4.36,4.36,0,0,1,116,313.15Z" style="fill: rgb(224, 224, 224); transform-origin: 115.995px 308.79px;" id="el2vlgulwp92y" class="animable"></path><path d="M124.7,313.15h0a4.36,4.36,0,0,1-4.36-4.36v-4.36h8.71v4.36A4.36,4.36,0,0,1,124.7,313.15Z" style="fill: rgb(250, 250, 250); transform-origin: 124.695px 308.79px;" id="eld6sit49lmnn" class="animable"></path><path d="M133.41,313.15h0a4.36,4.36,0,0,1-4.36-4.36v-4.36h8.72v4.36A4.36,4.36,0,0,1,133.41,313.15Z" style="fill: rgb(224, 224, 224); transform-origin: 133.41px 308.79px;" id="el2afvz6d6gru" class="animable"></path><path d="M142.1,313.15h0a4.36,4.36,0,0,1-4.35-4.36v-4.36h8.71v4.36A4.36,4.36,0,0,1,142.1,313.15Z" style="fill: rgb(250, 250, 250); transform-origin: 142.105px 308.79px;" id="eln8s3q7dl2ce" class="animable"></path><path d="M150.81,313.15h0a4.36,4.36,0,0,1-4.35-4.36v-4.36h8.71v4.36A4.36,4.36,0,0,1,150.81,313.15Z" style="fill: rgb(224, 224, 224); transform-origin: 150.815px 308.79px;" id="el7ejgwtennyg" class="animable"></path><path d="M159.51,313.15h0a4.36,4.36,0,0,1-4.36-4.36v-4.36h8.71v4.36A4.36,4.36,0,0,1,159.51,313.15Z" style="fill: rgb(250, 250, 250); transform-origin: 159.505px 308.79px;" id="eleqnth7cxj6i" class="animable"></path><path d="M168.22,313.15h0a4.36,4.36,0,0,1-4.36-4.36v-4.36h8.71v4.36A4.36,4.36,0,0,1,168.22,313.15Z" style="fill: rgb(224, 224, 224); transform-origin: 168.215px 308.79px;" id="eli9859cacsk" class="animable"></path><path d="M176.91,313.15h0a4.36,4.36,0,0,1-4.36-4.36v-4.36h8.72v4.36A4.36,4.36,0,0,1,176.91,313.15Z" style="fill: rgb(250, 250, 250); transform-origin: 176.91px 308.79px;" id="el8uogsi4hv26" class="animable"></path><path d="M185.62,313.15h0a4.36,4.36,0,0,1-4.35-4.36v-4.36H190v4.36A4.36,4.36,0,0,1,185.62,313.15Z" style="fill: rgb(224, 224, 224); transform-origin: 185.635px 308.79px;" id="elc7p4wh842e" class="animable"></path><path d="M203,313.15h0a4.36,4.36,0,0,1-4.36-4.36v-4.36h8.71v4.36A4.36,4.36,0,0,1,203,313.15Z" style="fill: rgb(224, 224, 224); transform-origin: 202.995px 308.79px;" id="elpl9h0cnncm" class="animable"></path><path d="M194.31,313.15h0a4.36,4.36,0,0,1-4.35-4.36v-4.36h8.71v4.36A4.36,4.36,0,0,1,194.31,313.15Z" style="fill: rgb(250, 250, 250); transform-origin: 194.315px 308.79px;" id="el2ohkts7ju67" class="animable"></path><rect x="102.09" y="340.17" width="97.45" height="5.81" style="fill: rgb(224, 224, 224); transform-origin: 150.815px 343.075px;" id="el5kt10wxlevw" class="animable"></rect><polygon points="102.96 281.01 94.25 304.43 102.96 304.43 110.33 281.01 102.96 281.01" style="fill: rgb(224, 224, 224); transform-origin: 102.29px 292.72px;" id="elwjn9zsyjze" class="animable"></polygon><polygon points="110.31 281.01 102.94 304.43 111.65 304.43 117.68 281.01 110.31 281.01" style="fill: rgb(250, 250, 250); transform-origin: 110.31px 292.72px;" id="elqyscbr97uh8" class="animable"></polygon><polygon points="117.68 281.01 111.65 304.43 120.36 304.43 125.05 281.01 117.68 281.01" style="fill: rgb(224, 224, 224); transform-origin: 118.35px 292.72px;" id="ell3gdof6zgeo" class="animable"></polygon><polygon points="125.03 281.01 120.34 304.43 129.06 304.43 132.41 281.01 125.03 281.01" style="fill: rgb(250, 250, 250); transform-origin: 126.375px 292.72px;" id="elo9be1zxnm5l" class="animable"></polygon><polygon points="132.41 281.01 129.06 304.43 137.77 304.43 139.78 281.01 132.41 281.01" style="fill: rgb(224, 224, 224); transform-origin: 134.42px 292.72px;" id="elhumslwtjwq" class="animable"></polygon><polygon points="139.76 281.01 137.75 304.43 146.46 304.43 147.13 281.01 139.76 281.01" style="fill: rgb(250, 250, 250); transform-origin: 142.44px 292.72px;" id="el1re6fsnxqyw" class="animable"></polygon><polygon points="147.13 281.01 146.46 304.43 155.17 304.43 154.5 281.01 147.13 281.01" style="fill: rgb(224, 224, 224); transform-origin: 150.815px 292.72px;" id="elsxtd7933qe" class="animable"></polygon><polygon points="154.48 281.01 155.15 304.43 163.86 304.43 161.85 281.01 154.48 281.01" style="fill: rgb(250, 250, 250); transform-origin: 159.17px 292.72px;" id="elxnke0m0yj3" class="animable"></polygon><polygon points="161.85 281.01 163.86 304.43 172.57 304.43 169.22 281.01 161.85 281.01" style="fill: rgb(224, 224, 224); transform-origin: 167.21px 292.72px;" id="elr8wadrohasd" class="animable"></polygon><polygon points="169.21 281.01 172.56 304.43 181.27 304.43 176.58 281.01 169.21 281.01" style="fill: rgb(250, 250, 250); transform-origin: 175.24px 292.72px;" id="elo0dssot96yp" class="animable"></polygon><polygon points="176.58 281.01 181.27 304.43 189.98 304.43 183.95 281.01 176.58 281.01" style="fill: rgb(224, 224, 224); transform-origin: 183.28px 292.72px;" id="eldggf6n7t07m" class="animable"></polygon><polygon points="191.3 281.01 198.67 304.43 207.38 304.43 198.67 281.01 191.3 281.01" style="fill: rgb(224, 224, 224); transform-origin: 199.34px 292.72px;" id="elqbnnvmu5tkk" class="animable"></polygon><polygon points="183.93 281.01 189.96 304.43 198.67 304.43 191.3 281.01 183.93 281.01" style="fill: rgb(250, 250, 250); transform-origin: 191.3px 292.72px;" id="elk6hvx9zqmhd" class="animable"></polygon><rect x="129.06" y="271.99" width="43.5" height="23.26" style="fill: rgb(235, 235, 235); transform-origin: 150.81px 283.62px;" id="eloofvdnxqz3" class="animable"></rect><path d="M132.64,275.14v2.55h4.05V279h-4.05v3.22h-1.56v-8.4h6.13v1.31Z" style="fill: rgb(250, 250, 250); transform-origin: 134.145px 278.02px;" id="elx97y6668th" class="animable"></path><path d="M144.22,282.23l-1.72-2.46h-2.22v2.45h-1.56v-8.4h3.46c2.2,0,3.57,1.13,3.57,3a2.7,2.7,0,0,1-1.78,2.65l1.93,2.76Zm-2.11-7.08h-1.83v3.35h1.83c1.36,0,2.07-.63,2.07-1.68S143.47,275.15,142.11,275.15Z" style="fill: rgb(250, 250, 250); transform-origin: 142.31px 278.025px;" id="elmlxnbuulj5d" class="animable"></path><path d="M153.79,280.92v1.31H147.5v-8.4h6.12v1.31h-4.56v2.18h4.05v1.28h-4.05v2.32Z" style="fill: rgb(250, 250, 250); transform-origin: 150.645px 278.03px;" id="elojy9vhcipwp" class="animable"></path><path d="M154.83,281.34l.54-1.21a4.65,4.65,0,0,0,2.77.92c1.31,0,1.86-.47,1.86-1.09,0-1.81-5-.62-5-3.74,0-1.36,1.08-2.51,3.38-2.51a5.19,5.19,0,0,1,2.79.75l-.49,1.21a4.58,4.58,0,0,0-2.31-.66c-1.3,0-1.82.5-1.82,1.14,0,1.78,5,.62,5,3.7,0,1.35-1.09,2.5-3.39,2.5A5.39,5.39,0,0,1,154.83,281.34Z" style="fill: rgb(250, 250, 250); transform-origin: 158.19px 278.031px;" id="elc2jngjlpdba" class="animable"></path><path d="M170.54,273.83v8.4H169v-3.6h-4.34v3.6h-1.56v-8.4h1.56v3.47H169v-3.47Z" style="fill: rgb(250, 250, 250); transform-origin: 166.82px 278.03px;" id="elil4p6pvllv" class="animable"></path><path d="M134.67,285.4V288h4.05v1.32h-4.05v3.22h-1.56v-8.4h6.13v1.31Z" style="fill: rgb(250, 250, 250); transform-origin: 136.175px 288.34px;" id="elizhcxljhtni" class="animable"></path><path d="M140.06,288.29a4.52,4.52,0,1,1,4.52,4.32A4.3,4.3,0,0,1,140.06,288.29Zm7.47,0a3,3,0,1,0-2.95,2.95A2.86,2.86,0,0,0,147.53,288.29Z" style="fill: rgb(250, 250, 250); transform-origin: 144.576px 288.093px;" id="elexav9rw9zv" class="animable"></path><path d="M150.16,288.29a4.52,4.52,0,1,1,4.52,4.32A4.3,4.3,0,0,1,150.16,288.29Zm7.47,0a2.95,2.95,0,1,0-2.95,2.95A2.86,2.86,0,0,0,157.63,288.29Z" style="fill: rgb(250, 250, 250); transform-origin: 154.676px 288.093px;" id="el2hk8b949pmz" class="animable"></path><path d="M160.86,284.09h3.67c2.73,0,4.59,1.68,4.59,4.2s-1.86,4.2-4.59,4.2h-3.67Zm3.6,7.08a2.89,2.89,0,1,0,0-5.76h-2v5.76Z" style="fill: rgb(250, 250, 250); transform-origin: 164.99px 288.29px;" id="elk5pozjxmju" class="animable"></path><path d="M440.88,367.79v13.7h-386v-13.7a4.08,4.08,0,0,1,4-4.3H436.84A4.08,4.08,0,0,1,440.88,367.79Z" style="fill: rgb(235, 235, 235); transform-origin: 247.88px 372.49px;" id="elui38d3df9h" class="animable"></path><rect x="76.88" y="363.49" width="24" height="18" style="fill: rgb(245, 245, 245); transform-origin: 88.88px 372.49px;" id="elkolecjjlnh" class="animable"></rect><rect x="122.88" y="363.49" width="23" height="18" style="fill: rgb(245, 245, 245); transform-origin: 134.38px 372.49px;" id="elig2t9bcb7sm" class="animable"></rect><rect x="167.88" y="363.49" width="24" height="18" style="fill: rgb(245, 245, 245); transform-origin: 179.88px 372.49px;" id="el4imq5rvp67g" class="animable"></rect><rect x="213.88" y="363.49" width="23" height="18" style="fill: rgb(245, 245, 245); transform-origin: 225.38px 372.49px;" id="elrvxxyyjtn2a" class="animable"></rect><rect x="258.88" y="363.49" width="23" height="18" style="fill: rgb(245, 245, 245); transform-origin: 270.38px 372.49px;" id="elofw4mf8dxn" class="animable"></rect><rect x="303.88" y="363.49" width="24" height="18" style="fill: rgb(245, 245, 245); transform-origin: 315.88px 372.49px;" id="elq8cpcmkivc" class="animable"></rect><rect x="349.88" y="363.49" width="23" height="18" style="fill: rgb(245, 245, 245); transform-origin: 361.38px 372.49px;" id="elramqwo96erf" class="animable"></rect><rect x="394.88" y="363.49" width="24" height="18" style="fill: rgb(245, 245, 245); transform-origin: 406.88px 372.49px;" id="elus277lur94k" class="animable"></rect><g id="elxl1h2y1cr5m"><circle cx="127.71" cy="120.61" r="27.79" style="fill: rgb(250, 250, 250); transform-origin: 127.71px 120.61px; transform: rotate(-22.5deg);" class="animable" id="elc1bef7u8gp"></circle></g><path d="M113.29,120.3a4.83,4.83,0,0,0-6.21-4.63A10.28,10.28,0,0,0,97,104a9.77,9.77,0,0,0-1.89.18,8.94,8.94,0,0,0-16.58,4.52h-.15a8.24,8.24,0,0,0,0,16.48H108.6A4.82,4.82,0,0,0,113.29,120.3Z" style="fill: rgb(240, 240, 240); transform-origin: 91.7152px 112.531px;" id="elmh2w6uc2mma" class="animable"></path><path d="M421.89,196.28a4.83,4.83,0,0,0-4.83-4.83,4.92,4.92,0,0,0-1.39.21,10.45,10.45,0,0,0,.11-1.49A10.23,10.23,0,0,0,405.55,180a10.6,10.6,0,0,0-1.88.17,8.94,8.94,0,0,0-16.58,4.52h-.15a8.24,8.24,0,1,0,0,16.48H417.2A4.83,4.83,0,0,0,421.89,196.28Z" style="fill: rgb(240, 240, 240); transform-origin: 400.295px 188.521px;" id="elg1hpje7q9gf" class="animable"></path><path d="M260,138.57a7.65,7.65,0,0,1,9.84-7.32,16.56,16.56,0,0,1-.17-2.35A16.16,16.16,0,0,1,288.86,113a14.14,14.14,0,0,1,26.23,7.15h.24a13,13,0,0,1,0,26.07H267.46A7.63,7.63,0,0,1,260,138.57Z" style="fill: rgb(240, 240, 240); transform-origin: 294.182px 126.205px;" id="elo9z1rgy646i" class="animable"></path><path d="M122.79,204.18a9.19,9.19,0,0,1,11.84-8.81,20.13,20.13,0,0,1-.2-2.82,19.48,19.48,0,0,1,19.47-19.48,19.25,19.25,0,0,1,3.59.34,17,17,0,0,1,31.57,8.6h.28a15.69,15.69,0,0,1,0,31.38H131.72v0A9.19,9.19,0,0,1,122.79,204.18Z" style="fill: rgb(240, 240, 240); transform-origin: 163.91px 189.279px;" id="elfumj8i0ayba" class="animable"></path><path d="M173.9,134.77a3,3,0,0,0-3-3,3,3,0,0,0-.86.12,7,7,0,0,0,.06-.92,6.35,6.35,0,0,0-6.35-6.36,6.47,6.47,0,0,0-1.18.11,5.55,5.55,0,0,0-10.3,2.81h-.1a5.12,5.12,0,1,0,0,10.24H171A3,3,0,0,0,173.9,134.77Z" style="fill: rgb(240, 240, 240); transform-origin: 160.475px 129.905px;" id="elbah9o7n3pi" class="animable"></path><path d="M375.21,102.37a3,3,0,0,1,3.87-2.88,7,7,0,0,1-.07-.92,6.36,6.36,0,0,1,6.36-6.36,6.45,6.45,0,0,1,1.17.11,5.56,5.56,0,0,1,10.31,2.81h.09a5.13,5.13,0,0,1,0,10.25H378.13A3,3,0,0,1,375.21,102.37Z" style="fill: rgb(240, 240, 240); transform-origin: 388.527px 97.5145px;" id="elymiuna9ez3" class="animable"></path></g><g id="freepik--Shadow--inject-72" class="animable" style="transform-origin: 250px 416.24px;"><ellipse id="freepik--path--inject-72" cx="250" cy="416.24" rx="193.89" ry="11.32" style="fill: rgb(245, 245, 245); transform-origin: 250px 416.24px;" class="animable"></ellipse></g><g id="freepik--Plant--inject-72" class="animable" style="transform-origin: 93.9713px 370.206px;"><path d="M95.85,394.45s-4.75-10.37.68-20.59,7-12.62,3.54-14.71-5,8.17-5,8.17a23,23,0,0,1-.51-14.45c2.41-7.4,3.92-19.43.63-20.73s-.63,15-3.48,20.58a47.7,47.7,0,0,1-2.79-12.12c-.4-5.94.22-15.42-2.38-17.85s-4.26-.75-1.71,12.35a136.56,136.56,0,0,1,2.54,23.75s-5.64-17.18-9.42-17.69-3.78,5.07-.54,9.9S86.84,364.53,87.87,369c0,0-6.19-12.93-11.76-9s4.85,11.78,9.49,14.6,7.86,20.52,7.86,20.52Z" style="fill: #103A9A; transform-origin: 88.2091px 358.466px;" id="elksby3ldzjea" class="animable"></path><g id="el3ih8z4q4mab"><path d="M95.85,394.45s-4.75-10.37.68-20.59,7-12.62,3.54-14.71-5,8.17-5,8.17a23,23,0,0,1-.51-14.45c2.41-7.4,3.92-19.43.63-20.73s-.63,15-3.48,20.58a47.7,47.7,0,0,1-2.79-12.12c-.4-5.94.22-15.42-2.38-17.85s-4.26-.75-1.71,12.35a136.56,136.56,0,0,1,2.54,23.75s-5.64-17.18-9.42-17.69-3.78,5.07-.54,9.9S86.84,364.53,87.87,369c0,0-6.19-12.93-11.76-9s4.85,11.78,9.49,14.6,7.86,20.52,7.86,20.52Z" style="isolation: isolate; opacity: 0.2; transform-origin: 88.2091px 358.466px;" class="animable" id="el0j28ej6awjzc"></path></g><path d="M92.1,398.7s4.62-10.44-.93-20.57S84,365.61,87.46,363.46s5.14,8.1,5.14,8.1a23.11,23.11,0,0,0,.34-14.46c-2.5-7.36-4.15-19.37-.88-20.71s.81,15,3.73,20.52a47.87,47.87,0,0,0,2.64-12.16c.33-5.95-.4-15.42,2.16-17.89s4.25-.81,1.86,12.33A137.89,137.89,0,0,0,100.2,363s5.43-17.27,9.21-17.83,3.84,5,.66,9.88-9.32,13.62-10.29,18.09c0,0,6-13,11.64-9.15s-4.7,11.85-9.31,14.74-7.61,20.63-7.61,20.63Z" style="fill: #103A9A; transform-origin: 99.3526px 362.628px;" id="eltxw79hvmswa" class="animable"></path><polygon points="113.43 391.26 75.22 391.26 78.31 418.6 110.34 418.6 113.43 391.26" style="fill: rgb(38, 50, 56); transform-origin: 94.325px 404.93px;" id="el3bvtt5ctw88" class="animable"></polygon></g><g id="freepik--Device--inject-72" class="animable" style="transform-origin: 337.455px 267.745px;"><rect x="253.58" y="116.89" width="167.75" height="301.71" rx="10.05" style="fill: rgb(38, 50, 56); transform-origin: 337.455px 267.745px;" id="elussyznixvi" class="animable"></rect><path d="M415.67,127V408a4.12,4.12,0,0,1-4.18,4.11H263a3.68,3.68,0,0,1-3.73-3.77V126.66a3.32,3.32,0,0,1,3.19-3.45h37.13a2.63,2.63,0,0,1,2.4,1.67l1.53,3.78a2.6,2.6,0,0,0,2.39,1.65H369.1a2.57,2.57,0,0,0,2.39-1.62l1.54-3.81a2.62,2.62,0,0,1,2.39-1.67H412A3.76,3.76,0,0,1,415.67,127Z" style="fill: #103A9A; transform-origin: 337.469px 267.66px;" id="elxhqxawmbojp" class="animable"></path><g id="elvbpozu5ubwi"><path d="M407.57,123.21c-13.85,38.33-58.87,143.63-148.33,186.57V126.66a3.32,3.32,0,0,1,3.19-3.45h37.13a2.63,2.63,0,0,1,2.4,1.67l1.53,3.78a2.6,2.6,0,0,0,2.39,1.65H369.1a2.57,2.57,0,0,0,2.39-1.62l1.54-3.81a2.62,2.62,0,0,1,2.39-1.67Z" style="fill: rgb(255, 255, 255); opacity: 0.1; transform-origin: 333.404px 216.495px;" class="animable" id="elu717g58xc8b"></path></g><g id="el476r8awgrc9"><path d="M415.67,261V408a4.12,4.12,0,0,1-4.18,4.11H263a3.68,3.68,0,0,1-3.73-3.77V341.48C300.56,287.08,371.59,267.8,415.67,261Z" style="fill: rgb(255, 255, 255); opacity: 0.1; transform-origin: 337.469px 336.555px;" class="animable" id="el4z5vctxf7ed"></path></g><g id="elsgm0plxfbm"><path d="M337.43,123.58a2.15,2.15,0,1,1-2.15-2.15A2.16,2.16,0,0,1,337.43,123.58Z" style="fill: rgb(255, 255, 255); isolation: isolate; opacity: 0.6; transform-origin: 335.28px 123.58px;" class="animable" id="elaqpqgyu5htn"></path></g><g id="elh0uvrnls85b"><path d="M341.77,123.58a1.38,1.38,0,0,1-2.75,0,1.38,1.38,0,1,1,2.75,0Z" style="fill: rgb(255, 255, 255); isolation: isolate; opacity: 0.6; transform-origin: 340.395px 123.463px;" class="animable" id="elkb0cqjltlte"></path></g><g id="elu19kzxdnkis"><rect x="260.71" y="141.19" width="151.91" height="257.76" style="fill: rgb(255, 255, 255); opacity: 0.5; transform-origin: 336.665px 270.07px;" class="animable" id="elupd359hgou"></rect></g><rect x="264.82" y="171.84" width="143.67" height="37" style="fill: rgb(255, 255, 255); transform-origin: 336.655px 190.34px;" id="elzpupmqjmf4f" class="animable"></rect><rect x="264.82" y="210.86" width="143.67" height="37" style="fill: rgb(255, 255, 255); transform-origin: 336.655px 229.36px;" id="elbngqftml44" class="animable"></rect><rect x="264.82" y="146.66" width="143.67" height="22.15" style="fill: #103A9A; transform-origin: 336.655px 157.735px;" id="eluoz3nxzeew" class="animable"></rect><g id="elxzc2h88cbf"><g style="opacity: 0.5; transform-origin: 314.99px 190.092px;" class="animable" id="elpq3lwkb2uq"><path d="M313.23,194.34l-1.65-2.22-1.65,2.22h-1.66l2.5-3.25-2.39-3.15h1.67l1.57,2.1,1.57-2.1h1.62l-2.4,3.13,2.51,3.27Z" id="elfs2sg30jh3o" class="animable" style="transform-origin: 311.595px 191.14px;"></path><path d="M321.71,193v1.32h-6.19v-1l3.34-3.17c.81-.78,1-1.27,1-1.73,0-.77-.53-1.22-1.56-1.22a2.38,2.38,0,0,0-2,.88l-1.09-.84a3.87,3.87,0,0,1,3.19-1.39c1.82,0,3,.92,3,2.41a3.38,3.38,0,0,1-1.39,2.65L317.75,193Z" id="elytcpr5dyvx" class="animable" style="transform-origin: 318.46px 190.082px;"></path></g></g><path d="M378.64,190.83a6.69,6.69,0,1,1-6.68-6.68A6.69,6.69,0,0,1,378.64,190.83Z" style="fill: #103A9A; transform-origin: 371.95px 190.84px;" id="el9717mx1o87m" class="animable"></path><rect x="371.46" y="187.1" width="1" height="7.47" style="fill: rgb(255, 255, 255); transform-origin: 371.96px 190.835px;" id="elh8tkfjkx4w5" class="animable"></rect><rect x="368.22" y="190.33" width="7.47" height="1" style="fill: rgb(255, 255, 255); transform-origin: 371.955px 190.83px;" id="elbn2f8t27lc6" class="animable"></rect><path d="M398.65,190.83a6.68,6.68,0,1,1-6.68-6.68A6.69,6.69,0,0,1,398.65,190.83Z" style="fill: #103A9A; transform-origin: 391.97px 190.83px;" id="elsjo05a6a2qa" class="animable"></path><rect x="388.23" y="190.33" width="7.47" height="1" style="fill: rgb(255, 255, 255); transform-origin: 391.965px 190.83px;" id="elv9elaidbky" class="animable"></rect><path d="M276.9,197a5.5,5.5,0,0,0-1.21.6,3.34,3.34,0,0,0,.22,2.79c.5.39,5.87,1.31,8.67,1.1s5.55,0,8.56,0,8.73-.46,9.09-1.1a3.18,3.18,0,0,0,0-2.62,6.62,6.62,0,0,0-4.46-1.45C295.93,196.57,276.9,197,276.9,197Z" style="fill: #103A9A; transform-origin: 288.998px 198.917px;" id="elth95f3gj5i" class="animable"></path><g id="el6evvio9a8ld"><path d="M276.9,197a5.5,5.5,0,0,0-1.21.6,3.34,3.34,0,0,0,.22,2.79c.5.39,5.87,1.31,8.67,1.1s5.55,0,8.56,0,8.73-.46,9.09-1.1a3.18,3.18,0,0,0,0-2.62,6.62,6.62,0,0,0-4.46-1.45C295.93,196.57,276.9,197,276.9,197Z" style="fill: rgb(255, 255, 255); isolation: isolate; opacity: 0.3; transform-origin: 288.998px 198.917px;" class="animable" id="elosgtptwm8n"></path></g><path d="M276.66,195.19c-.09.54-.29,1.74,0,2a9.05,9.05,0,0,0,5.19.71,39.34,39.34,0,0,1,5.91-.21c3.32,0,4.7.14,5.38,0s1.59-.21,2.79-.28,2.9-.21,3.36-.21.71.32,1.31,0a13.3,13.3,0,0,1,1.22-.62s-.05-.72-.27-.83-.35,0-.39-.24,0-.18-.14-.41-.42-.53-.42-.53Z" style="fill: rgb(38, 50, 56); transform-origin: 289.164px 196.291px;" id="elbbq2befawdc" class="animable"></path><g id="elboetkalo34w"><path d="M276.66,195.19c-.09.54-.29,1.74,0,2a9.05,9.05,0,0,0,5.19.71,39.34,39.34,0,0,1,5.91-.21c3.32,0,4.7.14,5.38,0s1.59-.21,2.79-.28,2.9-.21,3.36-.21.71.32,1.31,0a13.3,13.3,0,0,1,1.22-.62s-.05-.72-.27-.83-.35,0-.39-.24,0-.18-.14-.41-.42-.53-.42-.53Z" style="fill: rgb(255, 255, 255); isolation: isolate; opacity: 0.2; transform-origin: 289.164px 196.291px;" class="animable" id="elx3kxydfkjf"></path></g><path d="M286.24,195.58a8,8,0,0,0,3.29.54,20.24,20.24,0,0,1,2.47,0c.85.07.53-.3,1.49.2s.92,1,2.44.25,1.7-.84,2.33-.84a3,3,0,0,0,1.4-.15c.55-.21,2.16-.74,2.16-.74s.05-.74-1.33-.78-16,.43-16.41.78S286.24,195.58,286.24,195.58Z" style="fill: #103A9A; transform-origin: 292.928px 195.505px;" id="elqkkq04b8i5" class="animable"></path><g id="elpnbzxkhxej"><path d="M286.24,195.58a8,8,0,0,0,3.29.54,20.24,20.24,0,0,1,2.47,0c.85.07.53-.3,1.49.2s.92,1,2.44.25,1.7-.84,2.33-.84a3,3,0,0,0,1.4-.15c.55-.21,2.16-.74,2.16-.74s.05-.74-1.33-.78-16,.43-16.41.78S286.24,195.58,286.24,195.58Z" style="isolation: isolate; opacity: 0.2; transform-origin: 292.928px 195.505px;" class="animable" id="el0vmqpjv0atdm"></path></g><path d="M278.11,194.06s-2.34.36-2.41.78.39.46.72.74a1.84,1.84,0,0,1,.48.64,1.92,1.92,0,0,1,1.74-.28c.81.39,1.2.42,1.41.28s.68.19,1.38.08a3.28,3.28,0,0,1,1.24,0c.46,0,1.13-.81,1.52-.74a8.81,8.81,0,0,0,2.19-.74Z" style="fill: #103A9A; transform-origin: 281.036px 195.191px;" id="elq6ajbaz654" class="animable"></path><path d="M276.55,190.77a2.32,2.32,0,0,0,0,1.58,5.83,5.83,0,0,1,0,2.34,9.83,9.83,0,0,1,3.82,0c1.91.43,2.33,1.19,4.17.77a6.88,6.88,0,0,1,2.69-.43c1.41,0,3.32-.6,5-.34s3.84-.26,3.9,0,3.32,0,3.32,0,1.55-.34,1.55-.68-.21-3.9-.21-3.9Z" style="fill: rgb(38, 50, 56); transform-origin: 288.706px 192.846px;" id="elnh81f4pfab" class="animable"></path><path d="M281.43,193.85s7.14-.28,8.1-.28,1.77.14,3.39.14a29.6,29.6,0,0,0,3.5.14c1.6-.14,3,0,3.22-.12a14.74,14.74,0,0,0-2,.33,6.06,6.06,0,0,1-1.87.22,4.41,4.41,0,0,0-1.42-.22c-.1.07-1,0-1.2.26s-.28,1.3-.39,1.26a3.15,3.15,0,0,0-1.24-1c-.84-.34-2.17-.83-2.36-.52s-1.38.11-1.77.52a2.48,2.48,0,0,1-1.31.61C285.91,195.2,281.43,193.85,281.43,193.85Z" style="fill: #103A9A; transform-origin: 290.535px 194.576px;" id="elsixb1wm9jc" class="animable"></path><path d="M276.33,190.68c-.08.54-.28,1.73,0,2s2.33,1,5.2.7a39.15,39.15,0,0,1,5.9-.21c3.33,0,4.71.14,5.38,0a27.21,27.21,0,0,1,2.79-.29c1.21-.07,2.9-.21,3.36-.21s.71.32,1.31,0a12.06,12.06,0,0,1,1.22-.63s-.05-.72-.26-.82-.36,0-.39-.25,0-.18-.14-.41l-.43-.53Z" style="fill: rgb(38, 50, 56); transform-origin: 288.838px 191.741px;" id="el6mta4rw66tn" class="animable"></path><g id="el21o2o18tj05"><path d="M276.33,190.68c-.08.54-.28,1.73,0,2s2.33,1,5.2.7a39.15,39.15,0,0,1,5.9-.21c3.33,0,4.71.14,5.38,0a27.21,27.21,0,0,1,2.79-.29c1.21-.07,2.9-.21,3.36-.21s.71.32,1.31,0a12.06,12.06,0,0,1,1.22-.63s-.05-.72-.26-.82-.36,0-.39-.25,0-.18-.14-.41l-.43-.53Z" style="fill: rgb(255, 255, 255); isolation: isolate; opacity: 0.2; transform-origin: 288.838px 191.741px;" class="animable" id="el21y4o4evvn4"></path></g><polygon points="283.77 189.43 292.82 194.84 300.6 189.18 283.77 189.43" style="fill: #103A9A; transform-origin: 292.185px 192.01px;" id="elxed2vyzsx3" class="animable"></polygon><g id="elolvgd8j2s1l"><polygon points="283.77 189.43 292.82 194.84 300.6 189.18 283.77 189.43" style="fill: rgb(255, 255, 255); isolation: isolate; opacity: 0.6; transform-origin: 292.185px 192.01px;" class="animable" id="ely8i8sbt6sml"></polygon></g><polygon points="275.69 189.29 278.64 194.24 290.73 189.54 275.69 189.29" style="fill: #103A9A; transform-origin: 283.21px 191.765px;" id="el3o5kn708jsh" class="animable"></polygon><g id="el13fr6qhgxd3"><polygon points="275.69 189.29 278.64 194.24 290.73 189.54 275.69 189.29" style="fill: rgb(255, 255, 255); isolation: isolate; opacity: 0.6; transform-origin: 283.21px 191.765px;" class="animable" id="elxeqrhw96t6j"></polygon></g><path d="M276.34,189.61s-1.56,1.48-1.06,1.91-.1,1.06-.1,1.06a4.61,4.61,0,0,1,2.93,0,7.27,7.27,0,0,0,4.24,0c.92-.28,3-.36,3.68-.85a17.75,17.75,0,0,0,2.19-2.55Z" style="fill: #103A9A; transform-origin: 281.7px 191.038px;" id="elwpfx5dak91o" class="animable"></path><path d="M290.48,189.18S293,191.8,294.8,192s2.05-.21,4.17,0,2.34.83,2.69.06a9.76,9.76,0,0,0,0-3.24Z" style="fill: #103A9A; transform-origin: 296.138px 190.628px;" id="elk4xbs6oi96" class="animable"></path><g id="el92kas0mqrq"><path d="M276.34,189.61s-1.56,1.48-1.06,1.91-.1,1.06-.1,1.06a4.61,4.61,0,0,1,2.93,0,7.27,7.27,0,0,0,4.24,0c.92-.28,3-.36,3.68-.85a17.75,17.75,0,0,0,2.19-2.55Z" style="isolation: isolate; opacity: 0.2; transform-origin: 281.7px 191.038px;" class="animable" id="elmysi3cq9kk"></path></g><g id="ellmwoti39mvi"><path d="M290.48,189.18S293,191.8,294.8,192s2.05-.21,4.17,0,2.34.83,2.69.06a9.76,9.76,0,0,0,0-3.24Z" style="isolation: isolate; opacity: 0.2; transform-origin: 296.138px 190.628px;" class="animable" id="el395h44qbsrm"></path></g><path d="M276.05,197a5.15,5.15,0,0,1,1.81-.32c.39.14,4.91.56,5.35.56a5.43,5.43,0,0,1,2.15,0c.88.28.77.5,2.05.25a10.51,10.51,0,0,1,2.26-.37c.67,0,.81-.19,1.31,0a6.92,6.92,0,0,0,2.19.33c.81,0,.76.47,1.95.1a5.85,5.85,0,0,1,2.12-.55c.67,0,1.52-.07,1.84,0s.12-.14.92,0a2.08,2.08,0,0,0,1.24-.11,5.1,5.1,0,0,0,.58.46c.23.14-1.08.26-1.54.34s.14.07-1,.32-.81.43-1.69.4-.8.08-1.41,0-.4.31-1.53,0a12.42,12.42,0,0,0-2.44-.43c-.18,0,.57-.1-.53.19s-.32.05-1.7.34-1.13.61-2,.26-1-.43-1.41-.32-.07.11-.67.14-.36,0-1,0a20.92,20.92,0,0,1-2.72.29c-.67,0-1.59-.4-2.05-.4a15.6,15.6,0,0,1-1.67-.32c-.7-.1-1.2,0-1.41-.22S276.05,197,276.05,197Z" style="fill: #103A9A; transform-origin: 288.948px 197.802px;" id="elaeyl7evvagb" class="animable"></path><g id="elgpxvlpz0bio"><path d="M276.05,197a5.15,5.15,0,0,1,1.81-.32c.39.14,4.91.56,5.35.56a5.43,5.43,0,0,1,2.15,0c.88.28.77.5,2.05.25a10.51,10.51,0,0,1,2.26-.37c.67,0,.81-.19,1.31,0a6.92,6.92,0,0,0,2.19.33c.81,0,.76.47,1.95.1a5.85,5.85,0,0,1,2.12-.55c.67,0,1.52-.07,1.84,0s.12-.14.92,0a2.08,2.08,0,0,0,1.24-.11,5.1,5.1,0,0,0,.58.46c.23.14-1.08.26-1.54.34s.14.07-1,.32-.81.43-1.69.4-.8.08-1.41,0-.4.31-1.53,0a12.42,12.42,0,0,0-2.44-.43c-.18,0,.57-.1-.53.19s-.32.05-1.7.34-1.13.61-2,.26-1-.43-1.41-.32-.07.11-.67.14-.36,0-1,0a20.92,20.92,0,0,1-2.72.29c-.67,0-1.59-.4-2.05-.4a15.6,15.6,0,0,1-1.67-.32c-.7-.1-1.2,0-1.41-.22S276.05,197,276.05,197Z" style="isolation: isolate; opacity: 0.2; transform-origin: 288.948px 197.802px;" class="animable" id="el8mmz6bzcnvv"></path></g><path d="M302.77,190.32c.38-.19.16-.84.16-1.27,0-4.9-6.32-8.87-14.11-8.87s-14.11,4-14.11,8.87c0,.43-.15,1,.16,1.27,1.06,1,7.39-.13,14-.22C294.91,190,301.24,191.06,302.77,190.32Z" style="fill: #103A9A; transform-origin: 288.834px 185.455px;" id="el4g9f349ft16" class="animable"></path><g id="el1o3zxy7f034"><path d="M302.77,190.32c.38-.19.16-.84.16-1.27,0-4.9-6.32-8.87-14.11-8.87s-14.11,4-14.11,8.87c0,.43-.15,1,.16,1.27,1.06,1,7.39-.13,14-.22C294.91,190,301.24,191.06,302.77,190.32Z" style="fill: rgb(255, 255, 255); isolation: isolate; opacity: 0.3; transform-origin: 288.834px 185.455px;" class="animable" id="el6nh5gbtod13"></path></g><path d="M288.84,181.83s.33.74,0,.74S288.84,181.83,288.84,181.83Z" style="fill: #103A9A; transform-origin: 288.84px 182.2px;" id="eli3mpmg5jeje" class="animable"></path><path d="M292.93,181.83s1.41.21,1.2.37S292.93,181.83,292.93,181.83Z" style="fill: #103A9A; transform-origin: 293.541px 182.03px;" id="elfp2ryur2iy8" class="animable"></path><path d="M285.3,181.83s-.83.53-1,.4S285.3,181.83,285.3,181.83Z" style="fill: #103A9A; transform-origin: 284.792px 182.04px;" id="ell6qom5l8eqq" class="animable"></path><g id="el0c50jgrdyli7"><g style="opacity: 0.5; transform-origin: 310.97px 228.87px;" class="animable" id="ele49etz7s66k"><path d="M310.77,233.07l-1.65-2.22-1.65,2.22h-1.66l2.5-3.25-2.39-3.16h1.67l1.57,2.1,1.57-2.1h1.62l-2.4,3.13,2.51,3.28Z" id="el6rrl8yu0acl" class="animable" style="transform-origin: 309.135px 229.865px;"></path><path d="M316.13,224.67v8.4h-1.56V226H312.8v-1.31Z" id="elm2g403vea9" class="animable" style="transform-origin: 314.465px 228.87px;"></path></g></g><path d="M376.18,229.56a6.69,6.69,0,1,1-6.69-6.68A6.69,6.69,0,0,1,376.18,229.56Z" style="fill: #103A9A; transform-origin: 369.49px 229.57px;" id="elj00zwagi8nd" class="animable"></path><rect x="368.99" y="225.82" width="1" height="7.47" style="fill: rgb(255, 255, 255); transform-origin: 369.49px 229.555px;" id="ely6hif30e5eo" class="animable"></rect><rect x="365.76" y="229.06" width="7.47" height="1" style="fill: rgb(255, 255, 255); transform-origin: 369.495px 229.56px;" id="eljrx284e675j" class="animable"></rect><path d="M396.19,229.56a6.69,6.69,0,1,1-6.68-6.68A6.68,6.68,0,0,1,396.19,229.56Z" style="fill: #103A9A; transform-origin: 389.5px 229.57px;" id="elsx92kedzia" class="animable"></path><rect x="385.77" y="229.06" width="7.47" height="1" style="fill: rgb(255, 255, 255); transform-origin: 389.505px 229.56px;" id="elvlezbie0kbl" class="animable"></rect><path d="M289.17,217.89h-5.59a8.24,8.24,0,0,0-5.43,7.57h16.44A8.23,8.23,0,0,0,289.17,217.89Z" style="fill: #103A9A; transform-origin: 286.37px 221.675px;" id="eliylcas7z0ki" class="animable"></path><g id="el31eletcrpea"><path d="M289.17,217.89h-5.59a8.24,8.24,0,0,0-5.43,7.57h16.44A8.23,8.23,0,0,0,289.17,217.89Z" style="fill: rgb(255, 255, 255); isolation: isolate; opacity: 0.6; transform-origin: 286.37px 221.675px;" class="animable" id="eltd343fax4yl"></path></g><g id="elt9b7phfeyxp"><rect x="285.7" y="213.33" width="1.17" height="17.95" style="opacity: 0.2; transform-origin: 286.285px 222.305px; transform: rotate(-10.22deg);" class="animable" id="el80uibs2kvun"></rect></g><polygon points="293.35 243.74 294.84 225.62 277.9 225.62 279.4 243.74 293.35 243.74" style="fill: #103A9A; transform-origin: 286.37px 234.68px;" id="elo6lkgrkz0r" class="animable"></polygon><polygon points="295.61 226.83 277.14 226.83 277.45 224.17 295.3 224.17 295.61 226.83" style="fill: #103A9A; transform-origin: 286.375px 225.5px;" id="elc68605bqxv9" class="animable"></polygon><g id="elpgu00n8t7mo"><polygon points="295.61 226.83 277.14 226.83 277.45 224.17 295.3 224.17 295.61 226.83" style="fill: rgb(255, 255, 255); isolation: isolate; opacity: 0.4; transform-origin: 286.375px 225.5px;" class="animable" id="el7g0xjxsxqxn"></polygon></g><rect x="264.82" y="251.73" width="143.67" height="22.15" style="fill: #103A9A; transform-origin: 336.655px 262.805px;" id="elw4m9o2b9n8" class="animable"></rect><path d="M316.77,260.85c0,1.85-1.37,3-3.58,3H311.3v2.42h-1.56v-8.39h3.45C315.4,257.87,316.77,259,316.77,260.85Zm-1.57,0c0-1.05-.71-1.66-2.08-1.66H311.3v3.33h1.82C314.49,262.52,315.2,261.91,315.2,260.85Z" style="fill: rgb(255, 255, 255); transform-origin: 313.255px 262.075px;" id="elxn898j15ug7" class="animable"></path><path d="M323.49,262.51v3.75h-1.42v-.78a2.24,2.24,0,0,1-2,.87c-1.46,0-2.39-.81-2.39-1.92s.72-1.91,2.67-1.91H322v-.1c0-.87-.53-1.39-1.6-1.39a3.16,3.16,0,0,0-1.94.64l-.59-1.09a4.5,4.5,0,0,1,2.71-.79C322.42,259.79,323.49,260.66,323.49,262.51Zm-1.5,1.75v-.74h-1.55c-1,0-1.29.38-1.29.85s.45.89,1.22.89A1.64,1.64,0,0,0,322,264.26Z" style="fill: rgb(255, 255, 255); transform-origin: 320.585px 263.074px;" id="el2mhnxtwiiyn" class="animable"></path><path d="M331.29,259.86l-3,6.92a2.48,2.48,0,0,1-2.47,1.89,2.67,2.67,0,0,1-1.72-.58l.6-1.11a1.63,1.63,0,0,0,1.11.45c.53,0,.84-.26,1.13-.89l.1-.25-2.79-6.43h1.56l2,4.74,2-4.74Z" style="fill: rgb(255, 255, 255); transform-origin: 327.695px 264.265px;" id="el23y3sy9st1b" class="animable"></path><path d="M342.94,262.59v3.67h-1.5v-3.47c0-1.14-.53-1.7-1.44-1.7s-1.67.65-1.67,1.92v3.25h-1.5v-3.47c0-1.14-.52-1.7-1.44-1.7s-1.66.65-1.66,1.92v3.25h-1.5v-6.4h1.43v.81a2.66,2.66,0,0,1,2.09-.88,2.39,2.39,0,0,1,2.16,1.06,3,3,0,0,1,2.4-1.06A2.46,2.46,0,0,1,342.94,262.59Z" style="fill: rgb(255, 255, 255); transform-origin: 337.597px 263.021px;" id="el8zwnovopwju" class="animable"></path><path d="M350.92,263.54h-5a1.93,1.93,0,0,0,2.07,1.54,2.3,2.3,0,0,0,1.74-.7l.8.92a3.22,3.22,0,0,1-2.58,1.05,3.25,3.25,0,0,1-3.53-3.29,3.18,3.18,0,0,1,3.31-3.27,3.11,3.11,0,0,1,3.23,3.31C350.94,263.22,350.93,263.4,350.92,263.54Zm-5-1h3.64a1.74,1.74,0,0,0-1.81-1.55A1.77,1.77,0,0,0,345.88,262.54Z" style="fill: rgb(255, 255, 255); transform-origin: 347.693px 263.075px;" id="eltgjuewminu" class="animable"></path><path d="M358.7,262.59v3.67h-1.5v-3.47c0-1.14-.57-1.7-1.53-1.7a1.7,1.7,0,0,0-1.78,1.93v3.24h-1.5v-6.4h1.42v.83a2.8,2.8,0,0,1,2.21-.9A2.5,2.5,0,0,1,358.7,262.59Z" style="fill: rgb(255, 255, 255); transform-origin: 355.555px 263.021px;" id="eloumj69353y" class="animable"></path><path d="M364.46,265.92a2.41,2.41,0,0,1-1.44.43,2,2,0,0,1-2.21-2.16v-3.08h-1.05v-1.2h1.05v-1.47h1.5v1.47H364v1.2h-1.72v3c0,.63.31,1,.89,1a1.35,1.35,0,0,0,.84-.26Z" style="fill: rgb(255, 255, 255); transform-origin: 362.11px 262.401px;" id="elzglfk4ghzjc" class="animable"></path><rect x="264.82" y="276.9" width="143.67" height="41.11" style="fill: rgb(255, 255, 255); transform-origin: 336.655px 297.455px;" id="elxexzwj8p5h" class="animable"></rect><g id="elopbq3n3iqak"><g style="opacity: 0.5; transform-origin: 366.025px 297.595px;" class="animable" id="elonbtcyiqdpq"><path d="M337.74,297.61l1.37.76-.47.81-1.39-.81v1.54h-.91v-1.53l-1.38.8-.48-.81,1.38-.76-1.38-.76L335,296l1.38.81v-1.53h.91v1.54l1.39-.82.47.82Z" id="eltnnmjbh5bn" class="animable" style="transform-origin: 336.815px 297.595px;"></path><path d="M343,297.61l1.37.76-.47.81-1.39-.81v1.54h-.91l0-1.53-1.38.8-.48-.81,1.38-.76-1.38-.76.48-.82,1.38.81,0-1.53h.91v1.54l1.39-.82.47.82Z" id="el1ucy35fl87f" class="animable" style="transform-origin: 342.055px 297.61px;"></path><path d="M348.21,297.61l1.36.76-.46.81-1.4-.81,0,1.54h-.92l0-1.53-1.38.8-.48-.81,1.38-.76-1.38-.76.48-.82,1.38.81,0-1.53h.92l0,1.54,1.4-.82.46.82Z" id="els76yyel432" class="animable" style="transform-origin: 347.25px 297.61px;"></path><path d="M353.44,297.61l1.36.76-.46.81-1.39-.81v1.54h-.91v-1.53l-1.38.8-.48-.81,1.38-.76-1.38-.76.48-.82,1.38.81v-1.53H353v1.54l1.39-.82.46.82Z" id="el2az191ti77s" class="animable" style="transform-origin: 352.515px 297.61px;"></path><path d="M361.74,297.61l1.37.76-.47.81-1.39-.81v1.54h-.91v-1.53l-1.38.8-.48-.81,1.38-.76-1.38-.76L359,296l1.38.81v-1.53h.91v1.54l1.39-.82.47.82Z" id="el0savxyrqlrt" class="animable" style="transform-origin: 360.815px 297.595px;"></path><path d="M367,297.61l1.37.76-.47.81-1.39-.81v1.54h-.91v-1.53l-1.38.8-.48-.81,1.38-.76-1.38-.76.48-.82,1.38.81v-1.53h.91v1.54l1.39-.82.47.82Z" id="eltowvte47iei" class="animable" style="transform-origin: 366.055px 297.61px;"></path><path d="M372.2,297.61l1.37.76-.47.81-1.39-.81v1.54h-.91l0-1.53-1.38.8-.48-.81,1.38-.76-1.38-.76.48-.82,1.38.81,0-1.53h.91v1.54l1.39-.82.47.82Z" id="elzcytrnsk16q" class="animable" style="transform-origin: 371.255px 297.61px;"></path><path d="M377.44,297.61l1.36.76-.46.81-1.4-.81,0,1.54h-.91v-1.53l-1.38.8-.48-.81,1.38-.76-1.38-.76.48-.82,1.38.81v-1.53H377l0,1.54,1.4-.82.46.82Z" id="el8rjx2j8zu7j" class="animable" style="transform-origin: 376.515px 297.61px;"></path><path d="M385.74,297.61l1.37.76-.47.81-1.39-.81v1.54h-.91v-1.53l-1.38.8-.48-.81,1.38-.76-1.38-.76L383,296l1.38.81v-1.53h.91v1.54l1.39-.82.47.82Z" id="elcezew3qllor" class="animable" style="transform-origin: 384.815px 297.595px;"></path><path d="M391,297.61l1.37.76-.47.81-1.39-.81v1.54h-.91v-1.53l-1.38.8-.48-.81,1.38-.76-1.38-.76.48-.82,1.38.81v-1.53h.91v1.54l1.39-.82.47.82Z" id="elwxqrce1x6ef" class="animable" style="transform-origin: 390.055px 297.61px;"></path><path d="M396.2,297.61l1.37.76-.47.81-1.39-.81v1.54h-.91v-1.53l-1.38.8-.47-.81,1.37-.76-1.37-.76.47-.82,1.38.81v-1.53h.91v1.54l1.39-.82.47.82Z" id="eloi4s9e1ta4" class="animable" style="transform-origin: 395.26px 297.61px;"></path></g></g><rect x="275.56" y="289.13" width="25.84" height="17.13" rx="2.73" style="fill: #103A9A; transform-origin: 288.48px 297.695px;" id="el42bxd6ekpc9" class="animable"></rect><g id="ely217s1rixgd"><g style="opacity: 0.5; transform-origin: 288.48px 300.495px;" class="animable" id="elztdqlro0kzc"><rect x="275.56" y="298.36" width="25.84" height="4.27" id="elae662fffrgq" class="animable" style="transform-origin: 288.48px 300.495px;"></rect></g></g><g id="el0bfa1lgcp3wv"><g style="opacity: 0.5; transform-origin: 298.03px 295.29px;" class="animable" id="elunm8hu8o49"><path d="M299.32,295.31A1.29,1.29,0,1,1,298,294,1.28,1.28,0,0,1,299.32,295.31Z" id="elfot9fiwqxwl" class="animable" style="transform-origin: 298.03px 295.29px;"></path></g></g><path d="M297.64,295.31a1.29,1.29,0,1,1-1.28-1.28A1.28,1.28,0,0,1,297.64,295.31Z" style="fill: rgb(255, 255, 255); transform-origin: 296.35px 295.32px;" id="eliwskx47phcq" class="animable"></path><rect x="289.67" y="340.99" width="93.99" height="29.32" rx="14.66" style="fill: #103A9A; transform-origin: 336.665px 355.65px;" id="elxc0sb5ivoum" class="animable"></rect><path d="M307.59,354.75a5.92,5.92,0,1,1,5.91,5.64A5.62,5.62,0,0,1,307.59,354.75Zm9.76,0a3.86,3.86,0,1,0-3.85,3.85A3.73,3.73,0,0,0,317.35,354.75Z" style="fill: rgb(255, 255, 255); transform-origin: 313.503px 354.474px;" id="el8qknorv305q" class="animable"></path><path d="M328.74,360.23,326.5,357h-2.9v3.2h-2v-11h4.52c2.88,0,4.67,1.47,4.67,3.9a3.51,3.51,0,0,1-2.34,3.46l2.52,3.61ZM326,351H323.6v4.38H326c1.79,0,2.71-.82,2.71-2.2S327.77,351,326,351Z" style="fill: rgb(255, 255, 255); transform-origin: 326.285px 354.715px;" id="elyxggw834vjg" class="animable"></path><path d="M333,349.26h4.8c3.56,0,6,2.19,6,5.49s-2.42,5.48-6,5.48H333Zm4.7,9.25c2.45,0,4-1.49,4-3.76s-1.58-3.77-4-3.77h-2.66v7.53Z" style="fill: rgb(255, 255, 255); transform-origin: 338.4px 354.745px;" id="elei9k4wuw93t" class="animable"></path><path d="M354.18,358.52v1.71H346v-11h8V351h-6v2.85h5.3v1.68H348v3Z" style="fill: rgb(255, 255, 255); transform-origin: 350.09px 354.73px;" id="elvfa3vij10bb" class="animable"></path><path d="M363.62,360.23,361.38,357h-2.9v3.2h-2v-11H361c2.88,0,4.67,1.47,4.67,3.9a3.51,3.51,0,0,1-2.34,3.46l2.53,3.61ZM360.87,351h-2.39v4.38h2.39c1.78,0,2.71-.82,2.71-2.2S362.65,351,360.87,351Z" style="fill: rgb(255, 255, 255); transform-origin: 361.17px 354.715px;" id="elnn2n91anoj" class="animable"></path><path d="M316.36,152.8H320c2.72,0,4.58,1.68,4.58,4.2s-1.86,4.2-4.58,4.2h-3.67Zm3.6,7.08a2.89,2.89,0,1,0,0-5.76h-2v5.76Z" style="fill: rgb(255, 255, 255); transform-origin: 320.455px 157px;" id="elwptm6jfec9" class="animable"></path><path d="M332.12,158.47h-5a1.94,1.94,0,0,0,2.07,1.54,2.28,2.28,0,0,0,1.74-.7l.8.93A3.59,3.59,0,0,1,325.6,158a3.18,3.18,0,0,1,3.31-3.27,3.13,3.13,0,0,1,3.24,3.31C332.15,158.15,332.13,158.33,332.12,158.47Zm-5-1h3.63a1.84,1.84,0,0,0-3.63,0Z" style="fill: rgb(255, 255, 255); transform-origin: 328.877px 158.016px;" id="elnewna3tqz5g" class="animable"></path><path d="M337.44,160.85a2.34,2.34,0,0,1-1.44.43,2,2,0,0,1-2.21-2.16V156h-1.05v-1.2h1.05v-1.46h1.5v1.46H337V156h-1.72v3.05a.84.84,0,0,0,.89,1,1.36,1.36,0,0,0,.84-.27Z" style="fill: rgb(255, 255, 255); transform-origin: 335.09px 157.316px;" id="ela21c09kaq6c" class="animable"></path><path d="M344,157.44v3.76h-1.42v-.78a2.26,2.26,0,0,1-2,.86c-1.46,0-2.39-.8-2.39-1.92s.72-1.91,2.67-1.91h1.65v-.09c0-.88-.53-1.39-1.6-1.39a3.22,3.22,0,0,0-1.94.63l-.59-1.09a4.5,4.5,0,0,1,2.71-.79C343,154.72,344,155.6,344,157.44Zm-1.5,1.75v-.74H341c-1,0-1.29.38-1.29.85s.45.89,1.22.89A1.64,1.64,0,0,0,342.54,159.19Z" style="fill: rgb(255, 255, 255); transform-origin: 341.095px 158.004px;" id="elcu3otaqf4vb" class="animable"></path><path d="M345.76,152.84a.91.91,0,0,1,1-.9.89.89,0,0,1,1,.86,1,1,0,0,1-1.92,0Zm.2,1.95h1.5v6.41H346Z" style="fill: rgb(255, 255, 255); transform-origin: 346.76px 156.567px;" id="elvheq36u4qim" class="animable"></path><path d="M349.43,152.3h1.5v8.9h-1.5Z" style="fill: rgb(255, 255, 255); transform-origin: 350.18px 156.75px;" id="elqamu65prs0i" class="animable"></path><path d="M352.17,160.56l.57-1.14a4.35,4.35,0,0,0,2.23.64c.95,0,1.35-.27,1.35-.71,0-1.22-4-.07-4-2.63,0-1.21,1.09-2,2.82-2a5.09,5.09,0,0,1,2.4.55l-.58,1.14a3.5,3.5,0,0,0-1.84-.48c-.91,0-1.34.3-1.34.72,0,1.3,4,.15,4,2.65,0,1.2-1.1,2-2.9,2A5,5,0,0,1,352.17,160.56Z" style="fill: rgb(255, 255, 255); transform-origin: 354.975px 158.01px;" id="el9ezewsqj7o6" class="animable"></path><g id="el44zfbfffnks"><rect x="276.48" y="131.95" width="1.93" height="2.58" style="fill: rgb(255, 255, 255); isolation: isolate; opacity: 0.6; transform-origin: 277.445px 133.24px; transform: rotate(180deg);" class="animable" id="elqshnqrebwo"></rect></g><g id="elimku6c13mrc"><rect x="273.33" y="131.1" width="1.93" height="3.44" style="fill: rgb(255, 255, 255); isolation: isolate; opacity: 0.6; transform-origin: 274.295px 132.82px; transform: rotate(180deg);" class="animable" id="el57amfdrmt5"></rect></g><g id="eld3ev13qrt4r"><rect x="270.18" y="130.24" width="1.93" height="4.29" style="fill: rgb(255, 255, 255); isolation: isolate; opacity: 0.6; transform-origin: 271.145px 132.385px; transform: rotate(180deg);" class="animable" id="el2aoid4w4jr"></rect></g><g id="elzrewha85ol"><rect x="267.03" y="129.38" width="1.93" height="5.15" style="fill: rgb(255, 255, 255); isolation: isolate; opacity: 0.6; transform-origin: 267.995px 131.955px; transform: rotate(180deg);" class="animable" id="el4tagx6ltcgq"></rect></g><g id="el8zrnzf9r218"><rect x="396.82" y="131.02" width="1.15" height="2.58" style="fill: rgb(255, 255, 255); isolation: isolate; opacity: 0.6; transform-origin: 397.395px 132.31px;" class="animable" id="elkghrhb2fs5q"></rect></g><g id="elzmfxfhhb8sm"><rect x="398.75" y="130.07" width="9.12" height="4.46" style="fill: rgb(255, 255, 255); isolation: isolate; opacity: 0.6; transform-origin: 403.31px 132.3px; transform: rotate(180deg);" class="animable" id="elnum4hd10p6g"></rect></g></g><g id="freepik--Character--inject-72" class="animable" style="transform-origin: 226.386px 285.302px;"><polygon points="249.63 317.18 248.72 324.36 231.91 324.33 232.81 317.15 249.63 317.18" style="fill: rgb(181, 91, 82); transform-origin: 240.77px 320.755px;" id="eltxygapxt9xs" class="animable"></polygon><path d="M248.43,325.6v0c.25,1.16.55,3.23-.14,4a.92.92,0,0,1-.82.34.53.53,0,0,1-.46-.27c-.51-.87.94-3.81,1.1-4.14a.16.16,0,0,1,.18-.09A.15.15,0,0,1,248.43,325.6Zm-1.14,3.89,0,.06a.2.2,0,0,0,.18.1.65.65,0,0,0,.55-.22c.38-.45.44-1.64.15-3.23C247.67,327.35,247.09,328.94,247.29,329.49Z" style="fill: #103A9A; transform-origin: 247.808px 327.691px;" id="el75unqamdsp3" class="animable"></path><path d="M248.43,325.6a.13.13,0,0,1,0,.12c-.38.88-1.92,2.65-2.73,2.53-.2,0-.43-.16-.49-.63a1.27,1.27,0,0,1,.28-.95,4.93,4.93,0,0,1,2.77-1.19.18.18,0,0,1,.15.07S248.43,325.58,248.43,325.6Zm-2.84,2.16c0,.14.13.15.16.15.49.07,1.7-1.13,2.22-2a4,4,0,0,0-2.21,1,.9.9,0,0,0-.21.7A.8.8,0,0,0,245.59,327.76Z" style="fill: #103A9A; transform-origin: 246.823px 326.868px;" id="elo9th56n1as" class="animable"></path><path d="M247.43,324.9l-.09-7.9a.62.62,0,0,1,.48-.62l6.39-1.57a1,1,0,0,1,1.29,1c0,2.85-.13,7-.09,10.55.05,4.19-.19,6.85-.14,11.76,0,3-2.94,3.86-3.23,2.62-1.3-5.63-1-9.3-4-14.12A3.41,3.41,0,0,1,247.43,324.9Z" style="fill: rgb(38, 50, 56); transform-origin: 251.42px 328.027px;" id="elhcizgv2kpal" class="animable"></path><g id="elph79dkm5sd"><path d="M247.43,324.9l-.09-7.9a.62.62,0,0,1,.48-.62l6.39-1.57a1,1,0,0,1,1.29,1c0,2.85-.13,7-.09,10.55.05,4.19-.19,6.85-.14,11.76,0,3-2.94,3.86-3.23,2.62-1.3-5.63-1-9.3-4-14.12A3.41,3.41,0,0,1,247.43,324.9Z" style="fill: rgb(255, 255, 255); opacity: 0.5; transform-origin: 251.42px 328.027px;" class="animable" id="el7swf7njwmoo"></path></g><g id="elvmty3klbtq9"><polygon points="231.91 324.33 240.58 324.34 241.49 317.16 232.82 317.15 231.91 324.33" style="opacity: 0.2; transform-origin: 236.7px 320.745px;" class="animable" id="elmixrf46r5y"></polygon></g><polygon points="238.78 328.38 240.4 313.86 235.73 313.38 233.71 329.31 238.78 328.38" style="fill: rgb(38, 50, 56); transform-origin: 237.055px 321.345px;" id="elkmdpwyck16a" class="animable"></polygon><path d="M221.69,205.79c-2.45,4.21-5,8.26-7.7,12.3A127.58,127.58,0,0,1,205.07,230c-.44.5-.9,1-1.42,1.53a19.38,19.38,0,0,1-1.9,1.69c-.24.18-.45.33-.77.53l-.23.14-.3.16-.3.15a3.65,3.65,0,0,1-.44.18,6.33,6.33,0,0,1-3.91.19,7,7,0,0,1-2.49-1.29A8.67,8.67,0,0,1,192,232a17.52,17.52,0,0,1-2.41-4.16,37,37,0,0,1-1.35-3.75,75.49,75.49,0,0,1-2.81-14.61l5.27-1.25c1.79,4.31,3.59,8.73,5.54,12.73.49,1,1,1.94,1.52,2.8a7.74,7.74,0,0,0,1.4,1.87c.06,0,.11.05,0-.06a2.27,2.27,0,0,0-.91-.46,3.6,3.6,0,0,0-2.17.08l-.22.1-.11.05-.1,0,0,0c-.07,0,0,0,0,0s.4-.42.68-.77.62-.75.93-1.17c1.29-1.68,2.59-3.58,3.85-5.51s2.54-3.89,3.77-5.87l7.46-11.95Z" style="fill: rgb(182, 91, 82); transform-origin: 203.56px 217.431px;" id="el91smnvm470p" class="animable"></path><path d="M225.5,201c2.05,6.61-11.35,24.76-11.35,24.76l-14-8.8a86.94,86.94,0,0,1,9.31-16.3C215,193.42,223.24,193.76,225.5,201Z" style="fill: #103A9A; transform-origin: 212.932px 210.578px;" id="el32d2h5eatkr" class="animable"></path><g id="eln4au6qijwi"><path d="M225.5,201c2.05,6.61-11.35,24.76-11.35,24.76l-14-8.8a86.94,86.94,0,0,1,9.31-16.3C215,193.42,223.24,193.76,225.5,201Z" style="fill: rgb(255, 255, 255); opacity: 0.7; transform-origin: 212.932px 210.578px;" class="animable" id="elr0vzkf2hvfk"></path></g><g id="el957l05xu0z"><path d="M216.68,210.16c-3.5,1.64-7.19,7.63-7.7,12.35l5.17,3.26a109.72,109.72,0,0,0,8.58-13.85C221.64,210.25,220.69,208.29,216.68,210.16Z" style="opacity: 0.2; transform-origin: 215.855px 217.584px;" class="animable" id="elm9k4uzgt6x9"></path></g><path d="M255.71,191.08a162.09,162.09,0,0,0-2.88,24.78c-.24,5.64-.22,10.95-.07,15.72.34,11.08,1.34,19.38,1.24,22.21l-38,.82c-8.83-36.67-1.62-58.11-1.62-58.11a79.13,79.13,0,0,1,8.79-2.82c.63-.16,1.28-.31,1.95-.46a153.59,153.59,0,0,1,16.73-2.1c1.09-.08,2.2-.14,3.28-.18C250.68,190.73,255.71,191.08,255.71,191.08Z" style="fill: #103A9A; transform-origin: 233.658px 222.741px;" id="elw8e0z3a1n7f" class="animable"></path><g id="el6o8svpt3lek"><path d="M252.76,231.58c.35,11.08,1.34,19.38,1.24,22.21l-38,.82c-8.83-36.67-1.62-58.11-1.62-58.11a79.13,79.13,0,0,1,8.79-2.82c.63-.16,1.28-.31,1.95-.46a153.9,153.9,0,0,1,16.73-2.1c1.09-.08,2.2-.14,3.28-.18,5.57-.21,10.6.14,10.6.14a152.89,152.89,0,0,0-2.56,19.35c-.14,1.84-.24,3.65-.32,5.43-.12,2.66-.17,5.26-.18,7.75C252.64,226.4,252.69,229.06,252.76,231.58Z" style="fill: rgb(255, 255, 255); opacity: 0.7; transform-origin: 233.668px 222.741px;" class="animable" id="elshpx8np94x"></path></g><path d="M232.29,174.76c.32,5.36,1.73,15,6.2,17.5a16.28,16.28,0,0,1-11,7.91c-4.44,1-5.45-2-4.91-4,5.37-2.78,4.13-7,2.11-10.7Z" style="fill: rgb(181, 91, 82); transform-origin: 230.469px 187.564px;" id="elx27az9d8fkn" class="animable"></path><g id="el1jl2m18u0q9"><path d="M229.18,179.15l-4.53,6.36a15.72,15.72,0,0,1,1.22,2.69c2.11-.85,4.49-4,4.14-6.32A8,8,0,0,0,229.18,179.15Z" style="opacity: 0.2; transform-origin: 227.347px 183.675px;" class="animable" id="elgycp7d7pbrc"></path></g><path d="M209.8,165.3c-.36,2.89,1.13,8.42,4.62,5.89S210.42,160.33,209.8,165.3Z" style="fill: rgb(38, 50, 56); transform-origin: 212.545px 167.791px;" id="elv03eh3s5k6r" class="animable"></path><path d="M230.17,165.39c1.71,7,3.06,10.94.69,15.48-3.57,6.83-13,6.25-16.76-.07-3.38-5.69-5.6-16.1.26-20.83A9.87,9.87,0,0,1,230.17,165.39Z" style="fill: rgb(181, 91, 82); transform-origin: 221.431px 171.774px;" id="elbt4v4wqbend" class="animable"></path><path d="M233.17,157.49h-8v4.58c.14-.1.31-.19.45-.28s.81,6.64,4.71,8.74C235.35,166.37,236.56,159.87,233.17,157.49Z" style="fill: rgb(38, 50, 56); transform-origin: 230.128px 164.01px;" id="elrfckhuwglln" class="animable"></path><path d="M234.58,170.26a6.77,6.77,0,0,1-2,4.76c-1.72,1.64-3.72.37-4.2-1.84-.42-2-.05-5.24,2.14-6A3.09,3.09,0,0,1,234.58,170.26Z" style="fill: rgb(181, 91, 82); transform-origin: 231.406px 171.394px;" id="el5czctw56xmd" class="animable"></path><path d="M220.37,170.42c.17.56,0,1.1-.35,1.21s-.8-.25-1-.81,0-1.09.35-1.2S220.2,169.87,220.37,170.42Z" style="fill: rgb(38, 50, 56); transform-origin: 219.689px 170.625px;" id="elwxs0wbp624e" class="animable"></path><path d="M214.06,172.32c.17.56,0,1.1-.35,1.21s-.8-.26-1-.81,0-1.1.35-1.21S213.89,171.77,214.06,172.32Z" style="fill: rgb(38, 50, 56); transform-origin: 213.379px 172.52px;" id="elneadvoi7tcl" class="animable"></path><path d="M216.15,172a20.13,20.13,0,0,1-1.28,5.4,3.43,3.43,0,0,0,2.79-.35Z" style="fill: rgb(160, 39, 36); transform-origin: 216.265px 174.775px;" id="elpv7rs4ktkg" class="animable"></path><path d="M221.31,178.27a5.84,5.84,0,0,1-.71.27.17.17,0,0,1-.21-.12.16.16,0,0,1,.11-.21,4.56,4.56,0,0,0,3.07-2.81.16.16,0,0,1,.21-.11.17.17,0,0,1,.12.21A4.72,4.72,0,0,1,221.31,178.27Z" style="fill: rgb(38, 50, 56); transform-origin: 222.143px 176.913px;" id="ele2gn7a5e71v" class="animable"></path><path d="M221.68,167.81a.35.35,0,0,1-.34,0,2.72,2.72,0,0,0-2.44-.46.36.36,0,0,1-.45-.2.34.34,0,0,1,.2-.44,3.43,3.43,0,0,1,3.09.55.34.34,0,0,1,.08.47A.3.3,0,0,1,221.68,167.81Z" style="fill: rgb(38, 50, 56); transform-origin: 220.154px 167.206px;" id="elftgvxq7nqxm" class="animable"></path><path d="M210.67,171a.44.44,0,0,1-.2,0,.36.36,0,0,1-.29-.39,3.36,3.36,0,0,1,1.79-2.54.34.34,0,0,1,.45.17.33.33,0,0,1-.17.45,2.61,2.61,0,0,0-1.39,2A.32.32,0,0,1,210.67,171Z" style="fill: rgb(38, 50, 56); transform-origin: 211.316px 169.526px;" id="elb1tp6la1p1t" class="animable"></path><path d="M228.19,163.39a3,3,0,0,1-.47.36,3.17,3.17,0,0,1-3.06.26c-2-.88-2.9-6.47-8.4-3.35A3.28,3.28,0,0,0,213,162c-1.37,1.84-.07,8.27-3.21,7.51s-2.63-1.73-2.63-1.73.89.51,1.38.05a2.92,2.92,0,0,1-1-3.19s.79.86,1.29.66a13.07,13.07,0,0,1,.49-7.82c1.59-4.54,12.6-4.05,12.6-4.05s1.28-2.37,6.31-1,7.56,7.25,6.9,9.89" style="fill: rgb(38, 50, 56); transform-origin: 221.181px 160.788px;" id="elat89mxqge7v" class="animable"></path><path d="M242.71,329.58c-9.48,1.91-17.6,3.26-24.52,4.11-31.7,3.88-38.36-2.84-35.76-15.48,3.6-17.55,32.75-53.8,32.75-53.8V250h6.57l10.15-.76.22,21.09.22,20.4s-7.7,6.82-14.48,13.46c-5.87,5.75-11.05,11.35-10,12.27.79.66,4.71.76,9.58.61,9.71-.3,23.2-1.63,23.2-1.63Z" style="fill: #103A9A; transform-origin: 212.315px 292.013px;" id="elbcf0gjhwylk" class="animable"></path><g id="el1rabpyrqhxb"><path d="M232.34,290.73s-7.7,6.82-14.48,13.46C218,290.12,228.64,267,228.64,267l3.48,3.33Z" style="opacity: 0.2; transform-origin: 225.1px 285.595px;" class="animable" id="eld0d90h6i24j"></path></g><g id="elh9tpyxv5fko"><path d="M242.71,329.58c-9.48,1.91-17.6,3.26-24.52,4.11a54.71,54.71,0,0,1-.7-16.62c9.71-.3,23.2-1.63,23.2-1.63Z" style="opacity: 0.2; transform-origin: 229.933px 324.565px;" class="animable" id="elfw630sojosw"></path></g><path d="M253.58,286.25c-1.83,16.93-19.81,110.6-19.81,110.6H220.6l5.48-113.33L221.75,250l32.59-2.44s.23,3.17.35,8.24c0,1.46.06,3.07.07,4.82A228.62,228.62,0,0,1,253.58,286.25Z" style="fill: #103A9A; transform-origin: 237.686px 322.205px;" id="el50ja5sxtso6" class="animable"></path><polygon points="221.44 411.23 228.66 411.23 230.71 394.51 223.49 394.51 221.44 411.23" style="fill: rgb(181, 91, 82); transform-origin: 226.075px 402.87px;" id="el0329qwx7p77j" class="animable"></polygon><g id="el3koy5r500b"><polygon points="223.49 394.51 230.71 394.51 229.65 403.13 222.43 403.13 223.49 394.51" style="opacity: 0.2; transform-origin: 226.57px 398.82px;" class="animable" id="elxkj0hq7h3ph"></polygon></g><polygon points="234.72 398.95 219.15 398.95 219.2 394.3 235.46 393.36 234.72 398.95" style="fill: rgb(38, 50, 56); transform-origin: 227.305px 396.155px;" id="elh0b0i0zxkl5" class="animable"></polygon><path d="M218.58,411.65a2.25,2.25,0,0,1-1.4-.36,1.06,1.06,0,0,1-.36-.91.55.55,0,0,1,.29-.48c.79-.41,3.14,1,3.4,1.18a.18.18,0,0,1,.08.18.19.19,0,0,1-.12.14A8.57,8.57,0,0,1,218.58,411.65Zm-1.09-1.49a.48.48,0,0,0-.22,0,.22.22,0,0,0-.11.2.71.71,0,0,0,.24.62,3.44,3.44,0,0,0,2.57.13A7,7,0,0,0,217.49,410.16Z" style="fill: #103A9A; transform-origin: 218.703px 410.741px;" id="el4nde3pauji8" class="animable"></path><path d="M220.42,411.4l-.08,0c-.75-.41-2.21-2-2.06-2.79a.54.54,0,0,1,.54-.45,1,1,0,0,1,.73.22c.84.68,1,2.77,1,2.86a.15.15,0,0,1-.07.15A.17.17,0,0,1,220.42,411.4Zm-1.48-2.93h-.08c-.22,0-.24.13-.25.17-.08.48.85,1.67,1.6,2.23a4.2,4.2,0,0,0-.88-2.26A.6.6,0,0,0,218.94,408.47Z" style="fill: #103A9A; transform-origin: 219.41px 409.778px;" id="elr8bavdscqvm" class="animable"></path><path d="M221,410.39h8.81a.65.65,0,0,1,.62.5l1.49,6.41a1.06,1.06,0,0,1-1.05,1.29c-2.83,0-4.9-.22-8.47-.22-2.19,0-8.81.23-11.84.23s-3.45-3-2.22-3.27c5.56-1.21,9.73-2.89,11.5-4.49A1.7,1.7,0,0,1,221,410.39Z" style="fill: rgb(38, 50, 56); transform-origin: 219.82px 414.495px;" id="eljresko09m9r" class="animable"></path><g id="el3zys3pdhbcv"><path d="M221,410.39h8.81a.65.65,0,0,1,.62.5l1.49,6.41a1.06,1.06,0,0,1-1.05,1.29c-2.83,0-4.9-.22-8.47-.22-2.19,0-8.81.23-11.84.23s-3.45-3-2.22-3.27c5.56-1.21,9.73-2.89,11.5-4.49A1.7,1.7,0,0,1,221,410.39Z" style="fill: rgb(255, 255, 255); opacity: 0.5; transform-origin: 219.82px 414.495px;" class="animable" id="elwy74zph04so"></path></g><path d="M227.34,200.2s2.2,1.72,4.68,3.35c2.53-2.24,8.35-8,7.17-11.76a4,4,0,0,0-2.29-1.35A42.57,42.57,0,0,1,227.34,200.2Z" style="fill: rgb(255, 255, 255); transform-origin: 233.343px 196.995px;" id="el74vwtp6lnu2" class="animable"></path><path d="M227.34,200.2a20.89,20.89,0,0,0-2.78,5.12c-2.44-1-2.95-8.37-2.35-9.34a5,5,0,0,1,2.62-1.63S223.8,200.17,227.34,200.2Z" style="fill: rgb(255, 255, 255); transform-origin: 224.66px 199.835px;" id="eltejswupy4ja" class="animable"></path><g id="elo2mmmrexjvj"><path d="M254.76,260.62a13.63,13.63,0,0,1-3.34,1.56l-3.83-8.55a12.33,12.33,0,0,1,7.1,2.17C254.73,257.26,254.75,258.87,254.76,260.62Z" style="opacity: 0.2; transform-origin: 251.175px 257.905px;" class="animable" id="elwnxlha1d1zn"></path></g><g id="elm2x0j7edpx"><path d="M253.15,210.43c-.14,1.84-.24,3.65-.32,5.43-.12,2.66-.17,5.26-.18,7.75-3.47-4.6-2.46-13.84-2.46-13.84A5.28,5.28,0,0,1,253.15,210.43Z" style="opacity: 0.2; transform-origin: 251.602px 216.683px;" class="animable" id="elmgvwhtpls7f"></path></g><path d="M260.34,196.45a134.38,134.38,0,0,1,6.73,15.19,83.84,83.84,0,0,1,2.56,8.13c.35,1.42.67,2.87.91,4.41a24.13,24.13,0,0,1,.28,5.1,14.9,14.9,0,0,1-.18,1.54c-.06.29-.1.55-.18.85l-.12.44-.11.3c-.28.79-.56,1.62-.87,2.28-.61,1.41-1.27,2.66-1.94,3.92-1.32,2.49-2.77,4.82-4.23,7.12A161.06,161.06,0,0,1,253.72,259l-4.6-2.88,6.75-14.4c1.12-2.38,2.18-4.77,3.16-7.11.48-1.16.93-2.34,1.28-3.42.22-.57.31-1,.45-1.5l.05-.18v-.64a16.39,16.39,0,0,0-.41-2.87c-.23-1.09-.55-2.23-.91-3.39-.74-2.32-1.62-4.69-2.58-7.06-1.91-4.71-4.11-9.53-6.32-14.09Z" style="fill: rgb(182, 91, 82); transform-origin: 259.986px 227.725px;" id="el3g1urkuj9re" class="animable"></path><path d="M257.82,191.57C264.19,194.29,270.3,214,270.3,214l-16.75,5.75a100.6,100.6,0,0,1-6.05-17.2C245.26,193.07,250.1,188.28,257.82,191.57Z" style="fill: #103A9A; transform-origin: 258.625px 205.142px;" id="elh3zl7dopxl6" class="animable"></path><g id="elx1k6iurghi"><path d="M257.82,191.57C264.19,194.29,270.3,214,270.3,214l-16.75,5.75a100.6,100.6,0,0,1-6.05-17.2C245.26,193.07,250.1,188.28,257.82,191.57Z" style="fill: rgb(255, 255, 255); opacity: 0.7; transform-origin: 258.625px 205.142px;" class="animable" id="ellhi7fx51zs"></path></g><path d="M246.82,253.13s7,4.46,8.68,7.08c0,0-1.13,11.82-5.87,11S243.22,262.43,246.82,253.13Z" style="fill: #103A9A; transform-origin: 250.188px 262.19px;" id="elthcvgvnctfi" class="animable"></path><path d="M234.58,211.4l9.12-1.26V221s-4.94,2.84-8.6.86Z" style="fill: rgb(255, 255, 255); transform-origin: 239.14px 216.351px;" id="elvpzcmzdvtvr" class="animable"></path><path d="M199.27,207.72a.69.69,0,0,1-.53.9l-7.59,1.51a.92.92,0,0,1-1-.59l-4.67-14.65a.78.78,0,0,1,.51-1l7.59-1.51a1,1,0,0,1,1,.69Z" style="fill: rgb(38, 50, 56); transform-origin: 192.372px 201.26px;" id="eltspcdobfky" class="animable"></path><g id="elms1ztad0on"><path d="M193.73,193.14l4.73,14.79a.58.58,0,0,1-.45.83L191.57,210c-.43.09-1.27,0-1.4-.41l-4.74-14.83c-.13-.42.53-.91,1-1l6.43-1.29A.8.8,0,0,1,193.73,193.14Z" style="fill: rgb(255, 255, 255); opacity: 0.3; transform-origin: 191.966px 201.249px;" class="animable" id="el3v7lb6pjy0t"></path></g><path d="M185.74,212.73l-.41-7.35,7.55,3.1s0,6.58-3.41,6.42Z" style="fill: rgb(181, 91, 82); transform-origin: 189.105px 210.141px;" id="elztvurrnhez9" class="animable"></path><polygon points="188.76 198.95 194.35 203.82 192.88 208.48 185.33 205.38 188.76 198.95" style="fill: rgb(181, 91, 82); transform-origin: 189.84px 203.715px;" id="elsammvj0kioh" class="animable"></polygon></g><defs>     <filter id="active" height="200%">         <feMorphology in="SourceAlpha" result="DILATED" operator="dilate" radius="2"></feMorphology>                <feFlood flood-color="#32DFEC" flood-opacity="1" result="PINK"></feFlood>        <feComposite in="PINK" in2="DILATED" operator="in" result="OUTLINE"></feComposite>        <feMerge>            <feMergeNode in="OUTLINE"></feMergeNode>            <feMergeNode in="SourceGraphic"></feMergeNode>        </feMerge>    </filter>    <filter id="hover" height="200%">        <feMorphology in="SourceAlpha" result="DILATED" operator="dilate" radius="2"></feMorphology>                <feFlood flood-color="#ff0000" flood-opacity="0.5" result="PINK"></feFlood>        <feComposite in="PINK" in2="DILATED" operator="in" result="OUTLINE"></feComposite>        <feMerge>            <feMergeNode in="OUTLINE"></feMergeNode>            <feMergeNode in="SourceGraphic"></feMergeNode>        </feMerge>            <feColorMatrix type="matrix" values="0   0   0   0   0                0   1   0   0   0                0   0   0   0   0                0   0   0   1   0 "></feColorMatrix>    </filter></defs></svg>